<mxfile host="app.diagrams.net" modified="2023-05-06T01:28:40.084Z" agent="Mozilla/5.0 (Windows NT 10.0; Win64; x64) AppleWebKit/537.36 (KHTML, like Gecko) Chrome/113.0.0.0 Safari/537.36" etag="RSRbyg36MpFIbUS_XeLB" version="21.2.9" type="device">
  <diagram name="PÃ¡gina-1" id="GUxMZNqPbbQ1nctsu336">
    <mxGraphModel dx="1194" dy="772" grid="1" gridSize="10" guides="1" tooltips="1" connect="1" arrows="1" fold="1" page="1" pageScale="1" pageWidth="827" pageHeight="1169" math="0" shadow="0">
      <root>
        <mxCell id="0" />
        <mxCell id="1" parent="0" />
        <mxCell id="OKfXsXmtsWRnx2uojhsy-1" value="Usuario&lt;br&gt;" style="shape=umlActor;verticalLabelPosition=bottom;verticalAlign=top;html=1;outlineConnect=0;" vertex="1" parent="1">
          <mxGeometry x="41" y="90" width="30" height="50" as="geometry" />
        </mxCell>
        <mxCell id="OKfXsXmtsWRnx2uojhsy-2" value="&lt;font style=&quot;font-size: 11px;&quot;&gt;Controlador&lt;/font&gt;" style="ellipse;shape=umlControl;whiteSpace=wrap;html=1;" vertex="1" parent="1">
          <mxGeometry x="518" y="89" width="60" height="70" as="geometry" />
        </mxCell>
        <mxCell id="OKfXsXmtsWRnx2uojhsy-4" value="" style="html=1;points=[];perimeter=orthogonalPerimeter;outlineConnect=0;targetShapes=umlLifeline;portConstraint=eastwest;newEdgeStyle={&quot;edgeStyle&quot;:&quot;elbowEdgeStyle&quot;,&quot;elbow&quot;:&quot;vertical&quot;,&quot;curved&quot;:0,&quot;rounded&quot;:0};" vertex="1" parent="1">
          <mxGeometry x="51" y="190" width="10" height="530" as="geometry" />
        </mxCell>
        <mxCell id="OKfXsXmtsWRnx2uojhsy-5" value="" style="html=1;points=[];perimeter=orthogonalPerimeter;outlineConnect=0;targetShapes=umlLifeline;portConstraint=eastwest;newEdgeStyle={&quot;edgeStyle&quot;:&quot;elbowEdgeStyle&quot;,&quot;elbow&quot;:&quot;vertical&quot;,&quot;curved&quot;:0,&quot;rounded&quot;:0};" vertex="1" parent="1">
          <mxGeometry x="302" y="189" width="10" height="531" as="geometry" />
        </mxCell>
        <mxCell id="OKfXsXmtsWRnx2uojhsy-6" value="" style="html=1;points=[];perimeter=orthogonalPerimeter;outlineConnect=0;targetShapes=umlLifeline;portConstraint=eastwest;newEdgeStyle={&quot;edgeStyle&quot;:&quot;elbowEdgeStyle&quot;,&quot;elbow&quot;:&quot;vertical&quot;,&quot;curved&quot;:0,&quot;rounded&quot;:0};" vertex="1" parent="1">
          <mxGeometry x="543" y="290" width="10" height="410" as="geometry" />
        </mxCell>
        <mxCell id="OKfXsXmtsWRnx2uojhsy-7" value="&lt;font style=&quot;font-size: 12px;&quot;&gt;Ingresa la opcion: &quot;Acumular Millas&quot;&lt;/font&gt;" style="html=1;verticalAlign=bottom;endArrow=block;edgeStyle=elbowEdgeStyle;elbow=vertical;curved=0;rounded=0;" edge="1" parent="1">
          <mxGeometry width="80" relative="1" as="geometry">
            <mxPoint x="61" y="225" as="sourcePoint" />
            <mxPoint x="301" y="225" as="targetPoint" />
          </mxGeometry>
        </mxCell>
        <mxCell id="OKfXsXmtsWRnx2uojhsy-8" value="Viajero" style="ellipse;shape=umlEntity;whiteSpace=wrap;html=1;" vertex="1" parent="1">
          <mxGeometry x="742" y="90" width="64" height="60" as="geometry" />
        </mxCell>
        <mxCell id="OKfXsXmtsWRnx2uojhsy-9" value="Interfaz" style="shape=umlBoundary;whiteSpace=wrap;html=1;" vertex="1" parent="1">
          <mxGeometry x="261" y="91" width="79" height="61" as="geometry" />
        </mxCell>
        <mxCell id="OKfXsXmtsWRnx2uojhsy-10" value="" style="html=1;points=[];perimeter=orthogonalPerimeter;outlineConnect=0;targetShapes=umlLifeline;portConstraint=eastwest;newEdgeStyle={&quot;edgeStyle&quot;:&quot;elbowEdgeStyle&quot;,&quot;elbow&quot;:&quot;vertical&quot;,&quot;curved&quot;:0,&quot;rounded&quot;:0};" vertex="1" parent="1">
          <mxGeometry x="770" y="390" width="10" height="120" as="geometry" />
        </mxCell>
        <mxCell id="OKfXsXmtsWRnx2uojhsy-11" value="&lt;span style=&quot;font-size: 12px;&quot;&gt;Solicita numero de Viajero&lt;/span&gt;" style="html=1;verticalAlign=bottom;endArrow=block;edgeStyle=elbowEdgeStyle;elbow=vertical;curved=0;rounded=0;" edge="1" parent="1">
          <mxGeometry width="80" relative="1" as="geometry">
            <mxPoint x="301" y="252" as="sourcePoint" />
            <mxPoint x="61" y="252" as="targetPoint" />
          </mxGeometry>
        </mxCell>
        <mxCell id="OKfXsXmtsWRnx2uojhsy-12" value="&lt;span style=&quot;font-size: 12px;&quot;&gt;Solicita la Cantidad de Millas a Acumular&lt;br&gt;&lt;/span&gt;" style="html=1;verticalAlign=bottom;endArrow=block;edgeStyle=elbowEdgeStyle;elbow=vertical;curved=0;rounded=0;" edge="1" parent="1">
          <mxGeometry width="80" relative="1" as="geometry">
            <mxPoint x="301" y="280" as="sourcePoint" />
            <mxPoint x="61" y="280" as="targetPoint" />
          </mxGeometry>
        </mxCell>
        <mxCell id="OKfXsXmtsWRnx2uojhsy-13" value="&lt;span style=&quot;font-size: 12px;&quot;&gt;Ingresa el Numero de Viajero y las Millas&lt;/span&gt;" style="html=1;verticalAlign=bottom;endArrow=block;edgeStyle=elbowEdgeStyle;elbow=vertical;curved=0;rounded=0;" edge="1" parent="1">
          <mxGeometry width="80" relative="1" as="geometry">
            <mxPoint x="60" y="310" as="sourcePoint" />
            <mxPoint x="300" y="310" as="targetPoint" />
          </mxGeometry>
        </mxCell>
        <mxCell id="OKfXsXmtsWRnx2uojhsy-14" value="&lt;span style=&quot;font-size: 12px;&quot;&gt;Buscar Numero de Viajero&lt;/span&gt;" style="html=1;verticalAlign=bottom;endArrow=block;edgeStyle=elbowEdgeStyle;elbow=vertical;curved=0;rounded=0;" edge="1" parent="1">
          <mxGeometry width="80" relative="1" as="geometry">
            <mxPoint x="315" y="381" as="sourcePoint" />
            <mxPoint x="541" y="381" as="targetPoint" />
          </mxGeometry>
        </mxCell>
        <mxCell id="OKfXsXmtsWRnx2uojhsy-15" value="Alt" style="shape=umlFrame;whiteSpace=wrap;html=1;pointerEvents=0;fillColor=#f8cecc;strokeColor=#b85450;strokeWidth=2;" vertex="1" parent="1">
          <mxGeometry x="41" y="320" width="759" height="360" as="geometry" />
        </mxCell>
        <mxCell id="OKfXsXmtsWRnx2uojhsy-17" value="&lt;b&gt;&lt;font style=&quot;font-size: 11px;&quot;&gt;[Si encuentra el numero de Viajero]&lt;/font&gt;&lt;/b&gt;" style="text;html=1;strokeColor=none;fillColor=none;align=center;verticalAlign=middle;whiteSpace=wrap;rounded=0;" vertex="1" parent="1">
          <mxGeometry x="98" y="317" width="210" height="30" as="geometry" />
        </mxCell>
        <mxCell id="OKfXsXmtsWRnx2uojhsy-18" value="&lt;span style=&quot;font-size: 12px;&quot;&gt;Acumular Millas&lt;/span&gt;" style="html=1;verticalAlign=bottom;endArrow=block;edgeStyle=elbowEdgeStyle;elbow=vertical;curved=0;rounded=0;" edge="1" parent="1">
          <mxGeometry x="-0.0016" width="80" relative="1" as="geometry">
            <mxPoint x="557" y="441" as="sourcePoint" />
            <mxPoint x="767" y="441" as="targetPoint" />
            <mxPoint as="offset" />
          </mxGeometry>
        </mxCell>
        <mxCell id="OKfXsXmtsWRnx2uojhsy-20" value="&lt;span style=&quot;font-size: 12px;&quot;&gt;Return&lt;br&gt;&lt;/span&gt;" style="html=1;verticalAlign=bottom;endArrow=block;edgeStyle=elbowEdgeStyle;elbow=vertical;curved=0;rounded=0;dashed=1;" edge="1" parent="1">
          <mxGeometry width="80" relative="1" as="geometry">
            <mxPoint x="768" y="468.5" as="sourcePoint" />
            <mxPoint x="558" y="468.5" as="targetPoint" />
          </mxGeometry>
        </mxCell>
        <mxCell id="OKfXsXmtsWRnx2uojhsy-21" value="&lt;span style=&quot;font-size: 12px;&quot;&gt;Return&lt;br&gt;&lt;/span&gt;" style="html=1;verticalAlign=bottom;endArrow=block;edgeStyle=elbowEdgeStyle;elbow=vertical;curved=0;rounded=0;dashed=1;" edge="1" parent="1">
          <mxGeometry width="80" relative="1" as="geometry">
            <mxPoint x="543" y="486" as="sourcePoint" />
            <mxPoint x="312" y="486.3333333333335" as="targetPoint" />
          </mxGeometry>
        </mxCell>
        <mxCell id="OKfXsXmtsWRnx2uojhsy-22" value="&lt;span style=&quot;font-size: 12px;&quot;&gt;Mostrar Nuevo Valor de Millas&lt;br&gt;&lt;/span&gt;" style="html=1;verticalAlign=bottom;endArrow=block;edgeStyle=elbowEdgeStyle;elbow=vertical;curved=0;rounded=0;exitX=-0.2;exitY=0.595;exitDx=0;exitDy=0;exitPerimeter=0;" edge="1" parent="1">
          <mxGeometry width="80" relative="1" as="geometry">
            <mxPoint x="302" y="500.8499999999999" as="sourcePoint" />
            <mxPoint x="61" y="501" as="targetPoint" />
            <Array as="points">
              <mxPoint x="311" y="501" />
            </Array>
          </mxGeometry>
        </mxCell>
        <mxCell id="OKfXsXmtsWRnx2uojhsy-23" value="" style="endArrow=none;html=1;rounded=0;fillColor=#f8cecc;strokeColor=#b85450;strokeWidth=2;dashed=1;" edge="1" parent="1">
          <mxGeometry width="50" height="50" relative="1" as="geometry">
            <mxPoint x="42" y="517" as="sourcePoint" />
            <mxPoint x="802" y="517" as="targetPoint" />
          </mxGeometry>
        </mxCell>
        <mxCell id="OKfXsXmtsWRnx2uojhsy-24" value="Loop" style="shape=umlFrame;whiteSpace=wrap;html=1;pointerEvents=0;fillColor=#d5e8d4;strokeColor=#7EAD63;strokeWidth=2;" vertex="1" parent="1">
          <mxGeometry x="307" y="327" width="250" height="103" as="geometry" />
        </mxCell>
        <mxCell id="OKfXsXmtsWRnx2uojhsy-27" value="&lt;span style=&quot;font-size: 12px;&quot;&gt;Return&lt;br&gt;&lt;/span&gt;" style="html=1;verticalAlign=bottom;endArrow=block;edgeStyle=elbowEdgeStyle;elbow=vertical;curved=0;rounded=0;dashed=1;" edge="1" parent="1">
          <mxGeometry width="80" relative="1" as="geometry">
            <mxPoint x="544" y="407.75" as="sourcePoint" />
            <mxPoint x="313" y="408.0833333333335" as="targetPoint" />
          </mxGeometry>
        </mxCell>
        <mxCell id="OKfXsXmtsWRnx2uojhsy-28" value="&lt;span style=&quot;font-size: 12px;&quot;&gt;Buscar Numero de Viajero&lt;/span&gt;" style="html=1;verticalAlign=bottom;endArrow=block;edgeStyle=elbowEdgeStyle;elbow=vertical;curved=0;rounded=0;" edge="1" parent="1">
          <mxGeometry width="80" relative="1" as="geometry">
            <mxPoint x="314" y="584" as="sourcePoint" />
            <mxPoint x="540" y="584" as="targetPoint" />
          </mxGeometry>
        </mxCell>
        <mxCell id="OKfXsXmtsWRnx2uojhsy-29" value="Loop" style="shape=umlFrame;whiteSpace=wrap;html=1;pointerEvents=0;fillColor=#d5e8d4;strokeColor=#7EAD63;strokeWidth=2;" vertex="1" parent="1">
          <mxGeometry x="306" y="530" width="250" height="103" as="geometry" />
        </mxCell>
        <mxCell id="OKfXsXmtsWRnx2uojhsy-30" value="&lt;span style=&quot;font-size: 12px;&quot;&gt;Return&lt;br&gt;&lt;/span&gt;" style="html=1;verticalAlign=bottom;endArrow=block;edgeStyle=elbowEdgeStyle;elbow=vertical;curved=0;rounded=0;dashed=1;" edge="1" parent="1">
          <mxGeometry width="80" relative="1" as="geometry">
            <mxPoint x="543" y="610.75" as="sourcePoint" />
            <mxPoint x="312" y="611.0833333333335" as="targetPoint" />
          </mxGeometry>
        </mxCell>
        <mxCell id="OKfXsXmtsWRnx2uojhsy-32" value="&lt;font style=&quot;font-size: 11px;&quot;&gt;No se encontro el numero de Viajero Ingresado&lt;/font&gt;" style="html=1;verticalAlign=bottom;endArrow=block;edgeStyle=elbowEdgeStyle;elbow=vertical;curved=0;rounded=0;exitX=-0.2;exitY=0.595;exitDx=0;exitDy=0;exitPerimeter=0;" edge="1" parent="1">
          <mxGeometry width="80" relative="1" as="geometry">
            <mxPoint x="302" y="649.9999999999999" as="sourcePoint" />
            <mxPoint x="61" y="650.15" as="targetPoint" />
            <Array as="points">
              <mxPoint x="311" y="650.15" />
            </Array>
          </mxGeometry>
        </mxCell>
        <mxCell id="OKfXsXmtsWRnx2uojhsy-33" value="&lt;span style=&quot;font-size: 11px;&quot;&gt;&lt;b&gt;[Hasta que lo encuentre o no haya mas]&lt;/b&gt;&lt;/span&gt;" style="text;html=1;strokeColor=none;fillColor=none;align=center;verticalAlign=middle;whiteSpace=wrap;rounded=0;" vertex="1" parent="1">
          <mxGeometry x="371" y="329" width="158" height="30" as="geometry" />
        </mxCell>
        <mxCell id="OKfXsXmtsWRnx2uojhsy-34" value="&lt;span style=&quot;font-size: 11px;&quot;&gt;&lt;b&gt;[Hasta que lo encuentre o no haya mas]&lt;/b&gt;&lt;/span&gt;" style="text;html=1;strokeColor=none;fillColor=none;align=center;verticalAlign=middle;whiteSpace=wrap;rounded=0;" vertex="1" parent="1">
          <mxGeometry x="377" y="534" width="158" height="30" as="geometry" />
        </mxCell>
        <mxCell id="OKfXsXmtsWRnx2uojhsy-35" value="" style="endArrow=none;dashed=1;html=1;rounded=0;" edge="1" parent="1">
          <mxGeometry width="50" height="50" relative="1" as="geometry">
            <mxPoint x="548" y="290" as="sourcePoint" />
            <mxPoint x="548" y="160" as="targetPoint" />
          </mxGeometry>
        </mxCell>
        <mxCell id="OKfXsXmtsWRnx2uojhsy-36" value="" style="endArrow=none;dashed=1;html=1;rounded=0;entryX=0.5;entryY=1;entryDx=0;entryDy=0;" edge="1" parent="1" source="OKfXsXmtsWRnx2uojhsy-10" target="OKfXsXmtsWRnx2uojhsy-8">
          <mxGeometry width="50" height="50" relative="1" as="geometry">
            <mxPoint x="774.5" y="290" as="sourcePoint" />
            <mxPoint x="774.5" y="160" as="targetPoint" />
          </mxGeometry>
        </mxCell>
        <mxCell id="OKfXsXmtsWRnx2uojhsy-37" value="" style="endArrow=none;dashed=1;html=1;rounded=0;" edge="1" parent="1">
          <mxGeometry width="50" height="50" relative="1" as="geometry">
            <mxPoint x="308" y="190" as="sourcePoint" />
            <mxPoint x="308" y="152" as="targetPoint" />
          </mxGeometry>
        </mxCell>
        <mxCell id="OKfXsXmtsWRnx2uojhsy-38" value="" style="endArrow=none;dashed=1;html=1;rounded=0;" edge="1" parent="1" target="OKfXsXmtsWRnx2uojhsy-1">
          <mxGeometry width="50" height="50" relative="1" as="geometry">
            <mxPoint x="55.83" y="189" as="sourcePoint" />
            <mxPoint x="55.83" y="151" as="targetPoint" />
          </mxGeometry>
        </mxCell>
      </root>
    </mxGraphModel>
  </diagram>
</mxfile>
